<?xml version="1.0" encoding="iso-8859-1"?>
<!-- Generator: Adobe Illustrator 19.0.0, SVG Export Plug-In . SVG Version: 6.00 Build 0)  -->
<svg version="1.1" id="Capa_1" xmlns="http://www.w3.org/2000/svg" xmlns:xlink="http://www.w3.org/1999/xlink" x="0px" y="0px"
	 viewBox="0 0 424.229 424.229" style="enable-background:new 0 0 424.229 424.229;" xml:space="preserve">
<g>
	<path style="fill:#4DCFE0;" d="M206.89,132.18c-8.882,0-15.673-6.792-15.673-15.673V15.673C191.216,6.792,198.008,0,206.89,0
		s15.673,6.792,15.673,15.673v100.833C222.563,125.388,215.771,132.18,206.89,132.18z"/>
	<path style="fill:#4DCFE0;" d="M287.347,132.18c-8.882,0-15.673-6.792-15.673-15.673V61.649c0-8.882,6.792-15.673,15.673-15.673
		c8.882,0,15.673,6.792,15.673,15.673v54.857C303.02,125.388,296.229,132.18,287.347,132.18z"/>
	<path style="fill:#4DCFE0;" d="M126.433,132.18c-8.882,0-15.673-6.792-15.673-15.673V61.649c0-8.882,6.792-15.673,15.673-15.673
		s15.673,6.792,15.673,15.673v54.857C142.106,125.388,135.314,132.18,126.433,132.18z"/>
</g>
<path style="fill:#1185E0;" d="M400.196,185.469h-50.155v-11.494c0-8.882-6.792-15.673-15.673-15.673H78.89
	c-8.882,0-15.673,6.792-15.673,15.673v106.58c0,45.453,21.42,86.204,54.335,112.327H24.033c-8.882,0-15.673,6.792-15.673,15.673
	s6.792,15.673,15.673,15.673h365.714c8.882,0,15.673-6.792,15.673-15.673s-6.792-15.673-15.673-15.673h-93.518
	c30.302-24.033,50.678-60.604,53.29-101.355h50.678c8.882,0,15.673-6.792,15.673-15.673v-74.71
	C415.869,192.261,409.078,185.469,400.196,185.469z M94.563,189.649h224.131v91.429c0,3.657,0,6.792-0.522,10.449H95.086
	c-0.522-3.657-0.522-7.314-0.522-10.971V189.649z M206.89,392.882c-47.02,0-87.249-29.257-103.967-70.008h207.412
	C294.139,363.624,253.91,392.882,206.89,392.882z M384.522,260.18h-34.482v-43.363h34.482V260.18z"/>
<g>
</g>
<g>
</g>
<g>
</g>
<g>
</g>
<g>
</g>
<g>
</g>
<g>
</g>
<g>
</g>
<g>
</g>
<g>
</g>
<g>
</g>
<g>
</g>
<g>
</g>
<g>
</g>
<g>
</g>
</svg>
